<svg width="99" height="101" fill="none" xmlns="http://www.w3.org/2000/svg"><path d="M96.9 35.956a50.22 50.22 0 011.867 9.575l-.995.095a50.096 50.096 0 010 9.566l.995.096a50.22 50.22 0 01-1.866 9.574l-.959-.286a48.979 48.979 0 01-3.614 8.849l.884.466a50.116 50.116 0 01-5.37 8.143l-.777-.629a49.058 49.058 0 01-6.708 6.81l.64.768a49.563 49.563 0 01-8.067 5.482l-.478-.879a47.93 47.93 0 01-8.806 3.706l.294.956a48.81 48.81 0 01-9.562 1.921l-.098-.995a48.578 48.578 0 01-9.56 0l-.098.995a48.81 48.81 0 01-9.562-1.92l.294-.957a47.93 47.93 0 01-8.806-3.706l-.478.879a49.563 49.563 0 01-8.067-5.482l.64-.768a49.058 49.058 0 01-6.708-6.81l-.778.63a50.118 50.118 0 01-5.37-8.144l.885-.466a48.972 48.972 0 01-3.614-8.849l-.959.286a50.221 50.221 0 01-1.866-9.574l.995-.096a50.11 50.11 0 010-9.566l-.995-.095a50.219 50.219 0 011.866-9.575l.959.286a48.97 48.97 0 013.614-8.848l-.884-.467a50.123 50.123 0 015.37-8.143l.777.63a49.058 49.058 0 016.708-6.81l-.64-.768a49.561 49.561 0 018.067-5.482l.478.878a47.926 47.926 0 018.806-3.706l-.294-.956A48.838 48.838 0 0144.622.65l.098.995a48.6 48.6 0 019.56 0l.098-.995c3.293.325 6.49.976 9.562 1.921l-.294.956a47.926 47.926 0 018.806 3.706l.478-.878a49.561 49.561 0 018.067 5.482l-.64.768a49.058 49.058 0 016.708 6.81l.778-.63a50.12 50.12 0 015.37 8.143l-.885.466a48.976 48.976 0 013.614 8.85l.959-.287z" stroke="#87CE66" stroke-opacity=".7" stroke-width="2" stroke-dasharray="10 10"/></svg>