<svg width="40" height="40" fill="none" xmlns="http://www.w3.org/2000/svg"><rect width="40" height="40" rx="2" fill="#454545"/><g clip-path="url(#clip0_1_1136)"><path d="M17.848 22.65l-.331 4.654c.473 0 .678-.203.924-.447l2.22-2.121 4.598 3.367c.843.47 1.437.223 1.665-.776l3.018-14.143c.268-1.247-.45-1.735-1.272-1.43l-17.742 6.793c-1.21.47-1.192 1.145-.205 1.451l4.535 1.411 10.536-6.592c.496-.329.947-.147.576.181l-8.522 7.653z" fill="#fff"/></g><defs><clipPath id="clip0_1_1136"><path fill="#fff" transform="translate(10 10)" d="M0 0h20v20H0z"/></clipPath></defs></svg>