<svg width="40" height="40" fill="none" xmlns="http://www.w3.org/2000/svg"><rect width="40" height="40" rx="2" fill="#454545"/><g clip-path="url(#clip0_1_1144)"><path d="M30 13.799a8.55 8.55 0 01-2.363.647 4.076 4.076 0 001.804-2.266 8.191 8.191 0 01-2.6.992 4.099 4.099 0 00-7.093 2.804c0 .325.028.638.096.935-3.409-.166-6.425-1.8-8.452-4.289a4.128 4.128 0 00-.56 2.073c0 1.42.73 2.679 1.82 3.407a4.048 4.048 0 01-1.852-.505v.045a4.119 4.119 0 003.285 4.03 4.09 4.09 0 01-1.075.134 3.62 3.62 0 01-.776-.07c.531 1.624 2.039 2.818 3.831 2.857a8.238 8.238 0 01-5.084 1.748 7.67 7.67 0 01-.981-.056 11.543 11.543 0 006.29 1.84c7.545 0 11.67-6.25 11.67-11.668 0-.18-.006-.356-.015-.53A8.179 8.179 0 0030 13.8z" fill="#fff"/></g><defs><clipPath id="clip0_1_1144"><path fill="#fff" transform="translate(10 10)" d="M0 0h20v20H0z"/></clipPath></defs></svg>