<svg width="40" height="40" fill="none" xmlns="http://www.w3.org/2000/svg"><rect width="40" height="40" rx="2" fill="#454545"/><g clip-path="url(#clip0_1_1140)"><path d="M26.596 20.856c-.323-.408-.231-.59 0-.955.004-.004 2.673-3.692 2.948-4.943h.002c.137-.457 0-.792-.661-.792h-2.187c-.556 0-.813.288-.95.61 0 0-1.114 2.664-2.689 4.392-.508.5-.743.66-1.02.66-.137 0-.35-.16-.35-.617v-4.254c0-.547-.156-.79-.616-.79h-3.439c-.349 0-.556.254-.556.492 0 .518.787.637.869 2.096v3.164c0 .693-.126.82-.405.82-.744 0-2.548-2.675-3.617-5.738-.216-.594-.427-.834-.988-.834H10.75c-.624 0-.75.288-.75.61 0 .568.743 3.393 3.457 7.127 1.808 2.548 4.355 3.929 6.671 3.929 1.393 0 1.563-.307 1.563-.834 0-2.435-.126-2.665.572-2.665.323 0 .88.16 2.18 1.389 1.485 1.457 1.73 2.11 2.561 2.11h2.187c.623 0 .939-.307.757-.912-.416-1.272-3.226-3.89-3.352-4.065z" fill="#fff"/></g><defs><clipPath id="clip0_1_1140"><path fill="#fff" transform="translate(10 10)" d="M0 0h20v20H0z"/></clipPath></defs></svg>