<svg width="40" height="40" fill="none" xmlns="http://www.w3.org/2000/svg"><rect width="40" height="40" rx="2" fill="#454545"/><path d="M20.003 10h-.006C14.484 10 10 14.485 10 20c0 2.188.705 4.215 1.904 5.861l-1.246 3.715 3.843-1.229A9.913 9.913 0 0020.003 30C25.516 30 30 25.514 30 20s-4.484-10-9.997-10zm5.818 14.121c-.241.681-1.199 1.247-1.962 1.412-.523.11-1.205.2-3.503-.753-2.939-1.218-4.831-4.204-4.979-4.398-.14-.193-1.187-1.58-1.187-3.016 0-1.435.729-2.133 1.023-2.434.24-.246.64-.358 1.022-.358.124 0 .235.006.335.011.294.012.441.03.635.494.241.581.829 2.016.899 2.163.071.148.142.348.042.542-.094.2-.176.289-.323.459-.148.17-.288.3-.436.482-.134.159-.287.329-.117.622.17.288.758 1.247 1.622 2.017 1.117.994 2.022 1.311 2.346 1.446.24.1.528.076.704-.111.224-.242.5-.642.782-1.035.2-.283.452-.318.717-.218.27.094 1.699.8 1.993.946.293.148.487.218.558.342.07.123.07.705-.17 1.387z" fill="#fff"/></svg>