<svg width="537" height="6939" fill="none" xmlns="http://www.w3.org/2000/svg"><circle cx="263.5" cy="6921.5" r="17.5" fill="#63AB42"/><circle cx="263.5" cy="6921.5" r="11.569" fill="#fff" stroke="#fff"/><circle cx="263.5" cy="6921.5" r="9.052" fill="url(#paint0_linear)"/><circle cx="188.5" cy="6568.5" r="17.5" fill="#63AB42"/><circle cx="188.5" cy="6568.5" r="11.569" fill="#fff" stroke="#fff"/><circle cx="188.5" cy="6568.5" r="9.052" fill="url(#paint1_linear)"/><circle cx="408.5" cy="6211.5" r="17.5" fill="#67AF45"/><circle cx="408.5" cy="6211.5" r="11.569" fill="#fff" stroke="#fff"/><circle cx="408.5" cy="6211.5" r="9.052" fill="url(#paint2_linear)"/><circle cx="222.5" cy="5878.5" r="17.5" fill="#64AC42"/><circle cx="222.5" cy="5878.5" r="11.569" fill="#fff" stroke="#fff"/><circle cx="222.5" cy="5878.5" r="9.052" fill="url(#paint3_linear)"/><circle cx="246.5" cy="5544.5" r="17.5" fill="#64AC43"/><circle cx="246.5" cy="5544.5" r="11.569" fill="#fff" stroke="#fff"/><circle cx="246.5" cy="5544.5" r="9.052" fill="url(#paint4_linear)"/><circle cx="170.5" cy="5174.5" r="17.5" fill="#64AC42"/><circle cx="170.5" cy="5174.5" r="11.569" fill="#fff" stroke="#fff"/><circle cx="170.5" cy="5174.5" r="9.052" fill="url(#paint5_linear)"/><circle cx="383.5" cy="4748.5" r="17.5" fill="#6CB44A"/><circle cx="383.5" cy="4748.5" r="11.569" fill="#fff" stroke="#fff"/><circle cx="383.5" cy="4748.5" r="9.052" fill="url(#paint6_linear)"/><circle cx="211.5" cy="4186.5" r="17.5" fill="#68B047"/><circle cx="211.5" cy="4186.5" r="11.569" fill="#fff" stroke="#fff"/><circle cx="211.5" cy="4186.5" r="9.052" fill="url(#paint7_linear)"/><circle cx="377.5" cy="3734.5" r="17.5" fill="#6FB64D"/><circle cx="377.5" cy="3734.5" r="11.569" fill="#fff" stroke="#fff"/><circle cx="377.5" cy="3734.5" r="9.052" fill="url(#paint8_linear)"/><circle cx="202.5" cy="3298.5" r="17.5" fill="#6BB34A"/><circle cx="202.5" cy="3298.5" r="11.569" fill="#fff" stroke="#fff"/><circle cx="202.5" cy="3298.5" r="9.052" fill="url(#paint9_linear)"/><circle cx="267.5" cy="2847.5" r="19.5" fill="#6FB54D"/><circle cx="267.5" cy="2847.5" r="12.948" fill="#fff" stroke="#fff"/><circle cx="267.5" cy="2847.5" r="10.086" fill="url(#paint10_linear)"/><circle cx="214.5" cy="2512.5" r="17.5" fill="#6FB74D"/><circle cx="214.5" cy="2512.5" r="11.569" fill="#fff" stroke="#fff"/><circle cx="214.5" cy="2512.5" r="9.052" fill="url(#paint11_linear)"/><circle cx="397.5" cy="1943.5" r="17.5" fill="#76BD54"/><circle cx="397.5" cy="1943.5" r="11.569" fill="#fff" stroke="#fff"/><circle cx="397.5" cy="1943.5" r="9.052" fill="url(#paint12_linear)"/><circle cx="258.5" cy="1307.5" r="17.5" fill="#74BC53"/><circle cx="258.5" cy="1307.5" r="11.569" fill="#fff" stroke="#fff"/><circle cx="258.5" cy="1307.5" r="9.052" fill="url(#paint13_linear)"/><circle cx="172.5" cy="531.5" r="17.5" fill="#74BC53"/><circle cx="172.5" cy="531.5" r="11.569" fill="#fff" stroke="#fff"/><circle cx="172.5" cy="531.5" r="9.052" fill="url(#paint14_linear)"/><circle cx="206.5" cy="922.5" r="17.5" fill="#74BC53"/><circle cx="206.5" cy="922.5" r="11.569" fill="#fff" stroke="#fff"/><circle cx="206.5" cy="922.5" r="9.052" fill="url(#paint15_linear)"/><circle cx="383.5" cy="89.5" r="17.5" fill="#7CC45C"/><circle cx="383.5" cy="89.5" r="11.569" fill="#fff" stroke="#fff"/><circle cx="383.5" cy="89.5" r="9.052" fill="url(#paint16_linear)"/><path d="M459.072 1v0c-75.241 2.293-114.754 37.887-67.588 96.555 32.14 39.978 64.105 90.198 52.602 148.481-.911 4.615-28.063 39.876-53.311 77.061-17.093 25.174-70.216 26.313-84.765-.412v0c-17.399-31.96-66.143-15.976-61.237 20.082l9.151 67.253c3.459 25.417-14.889 48.619-40.418 51.112l-14.691 1.435v0c-27.086 5.883-41.655 35.438-29.826 60.505l30.416 64.453a99.778 99.778 0 016.868 65.531l-22.835 96.627c-17.876 75.64 2.912 155.222 55.497 212.456v0a234.35 234.35 0 0161.655 166.211l-1.907 58.39a212.702 212.702 0 01-34.936 110.03v0c-41.735 63.4-46.533 144.23-12.593 212.12l105.423 210.87c64.145 128.31 55.767 280.95-22.034 401.47l-60.229 93.29a138.422 138.422 0 00-18.962 104.5l29.117 133.82c5.781 26.56-16.181 50.98-43.209 48.03v0c-30.546-3.33-53.187 27.74-40.662 55.8l106.575 238.76c9.644 21.61-6.167 45.98-29.827 45.98v0c-24.685 0-40.449 26.33-28.792 48.09l57.253 106.87c19.169 35.78 16.053 79.4-8.008 112.09l-50.361 68.43c-65.496 88.99-61.713 211.22 9.161 295.99l45.467 54.39c95.616 114.36 102.734 278.62 17.369 400.83l-35.984 51.51a412.318 412.318 0 00-72.396 275.63l7.814 81.14a242.469 242.469 0 0041.892 114.63l123.051 178.04c45.307 65.55 6.163 155.9-72.65 167.68v0c-42.506 6.35-77.162 37.38-88.158 78.92l-36.678 138.58-22.048 97.05c-10.101 44.47 9.397 90.41 48.398 114.04l72.083 43.66c71.287 43.19 40.675 152.8-42.673 152.8h-24.724c-36.977 0-65.411 32.71-60.273 69.32l2.971 21.18c4.145 29.54 35.459 46.85 62.678 34.65v0c37.003-16.58 75.239 20.61 59.687 58.06l-73.401 176.74c-19.108 46.01-.148 99.01 43.808 122.46v0c45.752 24.41 64.122 80.55 41.65 127.28l-7.904 16.44c-24.859 51.69 5.223 113.02 61.318 125.01v0c54.505 11.65 84.838 70.14 62.958 121.4l-55.905 130.97c-13.757 32.23-43.779 54.57-78.601 58.5v0c-91.485 10.31-118.826 130.12-40.871 179.1l25.058 15.75c42.283 26.56 60.751 78.72 44.608 125.97L266.752 6917" stroke="#fff" stroke-width="2" stroke-dasharray="10 10"/><defs><linearGradient id="paint0_linear" x1="255.397" y1="6914.02" x2="271.38" y2="6930.52" gradientUnits="userSpaceOnUse"><stop stop-color="#87CE66"/><stop offset="1" stop-color="#63AB41"/></linearGradient><linearGradient id="paint1_linear" x1="180.397" y1="6561.02" x2="196.38" y2="6577.52" gradientUnits="userSpaceOnUse"><stop stop-color="#87CE66"/><stop offset="1" stop-color="#63AB41"/></linearGradient><linearGradient id="paint2_linear" x1="400.397" y1="6204.02" x2="416.38" y2="6220.52" gradientUnits="userSpaceOnUse"><stop stop-color="#87CE66"/><stop offset="1" stop-color="#63AB41"/></linearGradient><linearGradient id="paint3_linear" x1="214.397" y1="5871.02" x2="230.38" y2="5887.52" gradientUnits="userSpaceOnUse"><stop stop-color="#87CE66"/><stop offset="1" stop-color="#63AB41"/></linearGradient><linearGradient id="paint4_linear" x1="238.397" y1="5537.02" x2="254.38" y2="5553.52" gradientUnits="userSpaceOnUse"><stop stop-color="#87CE66"/><stop offset="1" stop-color="#63AB41"/></linearGradient><linearGradient id="paint5_linear" x1="162.397" y1="5167.02" x2="178.38" y2="5183.52" gradientUnits="userSpaceOnUse"><stop stop-color="#87CE66"/><stop offset="1" stop-color="#63AB41"/></linearGradient><linearGradient id="paint6_linear" x1="375.397" y1="4741.02" x2="391.38" y2="4757.52" gradientUnits="userSpaceOnUse"><stop stop-color="#87CE66"/><stop offset="1" stop-color="#63AB41"/></linearGradient><linearGradient id="paint7_linear" x1="203.397" y1="4179.02" x2="219.38" y2="4195.52" gradientUnits="userSpaceOnUse"><stop stop-color="#87CE66"/><stop offset="1" stop-color="#63AB41"/></linearGradient><linearGradient id="paint8_linear" x1="369.397" y1="3727.02" x2="385.38" y2="3743.52" gradientUnits="userSpaceOnUse"><stop stop-color="#87CE66"/><stop offset="1" stop-color="#63AB41"/></linearGradient><linearGradient id="paint9_linear" x1="194.397" y1="3291.02" x2="210.38" y2="3307.52" gradientUnits="userSpaceOnUse"><stop stop-color="#87CE66"/><stop offset="1" stop-color="#63AB41"/></linearGradient><linearGradient id="paint10_linear" x1="258.471" y1="2839.16" x2="276.281" y2="2857.55" gradientUnits="userSpaceOnUse"><stop stop-color="#87CE66"/><stop offset="1" stop-color="#63AB41"/></linearGradient><linearGradient id="paint11_linear" x1="206.397" y1="2505.02" x2="222.38" y2="2521.52" gradientUnits="userSpaceOnUse"><stop stop-color="#87CE66"/><stop offset="1" stop-color="#63AB41"/></linearGradient><linearGradient id="paint12_linear" x1="389.397" y1="1936.02" x2="405.38" y2="1952.52" gradientUnits="userSpaceOnUse"><stop stop-color="#87CE66"/><stop offset="1" stop-color="#63AB41"/></linearGradient><linearGradient id="paint13_linear" x1="250.397" y1="1300.02" x2="266.38" y2="1316.52" gradientUnits="userSpaceOnUse"><stop stop-color="#87CE66"/><stop offset="1" stop-color="#63AB41"/></linearGradient><linearGradient id="paint14_linear" x1="164.397" y1="524.019" x2="180.38" y2="540.522" gradientUnits="userSpaceOnUse"><stop stop-color="#87CE66"/><stop offset="1" stop-color="#63AB41"/></linearGradient><linearGradient id="paint15_linear" x1="198.397" y1="915.019" x2="214.38" y2="931.522" gradientUnits="userSpaceOnUse"><stop stop-color="#87CE66"/><stop offset="1" stop-color="#63AB41"/></linearGradient><linearGradient id="paint16_linear" x1="375.397" y1="82.019" x2="391.38" y2="98.522" gradientUnits="userSpaceOnUse"><stop stop-color="#87CE66"/><stop offset="1" stop-color="#63AB41"/></linearGradient></defs></svg>