<svg width="511" height="4932" fill="none" xmlns="http://www.w3.org/2000/svg"><path d="M38.5 31h202.927c85.035 0 180.516 4.239 230.569 72.982 24.365 33.464 41.033 79.12 36.005 139.018v0c-7.222 86.037-144.128 94.937-215.888 46.927l-10.507-7.03C184.157 217.7 51.888 274.68 32.327 390.285l-3.524 20.828a175.324 175.324 0 00-.275 56.82l24.548 154.164a706.899 706.899 0 01-7.36 261.421l-1.288 5.927A683.355 683.355 0 0057.38 1230.22v0a683.37 683.37 0 0118.914 309.98l-19.936 117.34a853.773 853.773 0 0020.434 376.3v0a853.748 853.748 0 0112.606 416.5l-19.6 89.22a999.957 999.957 0 00-2.507 417.42l59.965 289.48a1000.013 1000.013 0 015.825 375.19L108 3765l-41.63 131.11a668.94 668.94 0 00-9.147 373.45l2.686 10.16a605.396 605.396 0 0118.662 196.66l-2.905 41.87a373.117 373.117 0 0014.496 131.88v0C115.844 4736.75 108.7 4830.89 71 4913v0" stroke="#fff" stroke-width="3" stroke-dasharray="10 10"/><circle cx="29" cy="465" r="29" fill="#7AC159"/><circle cx="29" cy="465" r="19.5" fill="#fff" stroke="#fff"/><circle cx="29" cy="465" r="15" fill="url(#paint0_linear)"/><circle cx="29" cy="29" r="29" fill="#7BC25A"/><circle cx="29" cy="29" r="19.5" fill="#fff" stroke="#fff"/><circle cx="29" cy="29" r="15" fill="url(#paint1_linear)"/><circle cx="61" cy="793" r="29" fill="#79C057"/><circle cx="61" cy="793" r="19.5" fill="#fff" stroke="#fff"/><circle cx="61" cy="793" r="15" fill="url(#paint2_linear)"/><circle cx="29" cy="988" r="29" fill="#78BF57"/><circle cx="29" cy="988" r="19.5" fill="#fff" stroke="#fff"/><circle cx="29" cy="988" r="15" fill="url(#paint3_linear)"/><circle cx="81" cy="1344" r="29" fill="#76BE55"/><circle cx="81" cy="1344" r="19.5" fill="#fff" stroke="#fff"/><circle cx="81" cy="1344" r="15" fill="url(#paint4_linear)"/><circle cx="51" cy="1677" r="29" fill="#75BD54"/><circle cx="51" cy="1677" r="19.5" fill="#fff" stroke="#fff"/><circle cx="51" cy="1677" r="15" fill="url(#paint5_linear)"/><circle cx="86" cy="2070" r="29" fill="#74BC53"/><circle cx="86" cy="2070" r="19.5" fill="#fff" stroke="#fff"/><circle cx="86" cy="2070" r="15" fill="url(#paint6_linear)"/><circle cx="108" cy="2292" r="29" fill="#73BB51"/><circle cx="108" cy="2292" r="19.5" fill="#fff" stroke="#fff"/><circle cx="108" cy="2292" r="15" fill="url(#paint7_linear)"/><circle cx="52" cy="2712" r="29" fill="#72B950"/><circle cx="52" cy="2712" r="19.5" fill="#fff" stroke="#fff"/><circle cx="52" cy="2712" r="15" fill="url(#paint8_linear)"/><circle cx="68" cy="2957" r="29" fill="#70B84F"/><circle cx="68" cy="2957" r="19.5" fill="#fff" stroke="#fff"/><circle cx="68" cy="2957" r="15" fill="url(#paint9_linear)"/><circle cx="136" cy="3303" r="29" fill="#6FB74E"/><circle cx="136" cy="3303" r="19.5" fill="#fff" stroke="#fff"/><circle cx="136" cy="3303" r="15" fill="url(#paint10_linear)"/><circle cx="134" cy="3598" r="29" fill="#6EB64C"/><circle cx="134" cy="3598" r="19.5" fill="#fff" stroke="#fff"/><circle cx="134" cy="3598" r="15" fill="url(#paint11_linear)"/><circle cx="76" cy="3863" r="29" fill="#6DB54C"/><circle cx="76" cy="3863" r="19.5" fill="#fff" stroke="#fff"/><circle cx="76" cy="3863" r="15" fill="url(#paint12_linear)"/><circle cx="36" cy="4068" r="29" fill="#6CB44B"/><circle cx="36" cy="4068" r="19.5" fill="#fff" stroke="#fff"/><circle cx="36" cy="4068" r="15" fill="url(#paint13_linear)"/><circle cx="78" cy="4370" r="29" fill="#6BB34A"/><circle cx="78" cy="4370" r="19.5" fill="#fff" stroke="#fff"/><circle cx="78" cy="4370" r="15" fill="url(#paint14_linear)"/><circle cx="87" cy="4649" r="29" fill="#6AB249"/><circle cx="87" cy="4649" r="19.5" fill="#fff" stroke="#fff"/><circle cx="87" cy="4649" r="15" fill="url(#paint15_linear)"/><circle cx="74" cy="4903" r="29" fill="#69B148"/><circle cx="74" cy="4903" r="19.5" fill="#fff" stroke="#fff"/><circle cx="74" cy="4903" r="15" fill="url(#paint16_linear)"/><defs><linearGradient id="paint0_linear" x1="15.572" y1="452.603" x2="42.059" y2="479.951" gradientUnits="userSpaceOnUse"><stop stop-color="#87CE66"/><stop offset="1" stop-color="#63AB41"/></linearGradient><linearGradient id="paint1_linear" x1="15.572" y1="16.603" x2="42.059" y2="43.951" gradientUnits="userSpaceOnUse"><stop stop-color="#87CE66"/><stop offset="1" stop-color="#63AB41"/></linearGradient><linearGradient id="paint2_linear" x1="47.572" y1="780.603" x2="74.059" y2="807.951" gradientUnits="userSpaceOnUse"><stop stop-color="#87CE66"/><stop offset="1" stop-color="#63AB41"/></linearGradient><linearGradient id="paint3_linear" x1="15.572" y1="975.603" x2="42.059" y2="1002.95" gradientUnits="userSpaceOnUse"><stop stop-color="#87CE66"/><stop offset="1" stop-color="#63AB41"/></linearGradient><linearGradient id="paint4_linear" x1="67.572" y1="1331.6" x2="94.059" y2="1358.95" gradientUnits="userSpaceOnUse"><stop stop-color="#87CE66"/><stop offset="1" stop-color="#63AB41"/></linearGradient><linearGradient id="paint5_linear" x1="37.572" y1="1664.6" x2="64.059" y2="1691.95" gradientUnits="userSpaceOnUse"><stop stop-color="#87CE66"/><stop offset="1" stop-color="#63AB41"/></linearGradient><linearGradient id="paint6_linear" x1="72.572" y1="2057.6" x2="99.059" y2="2084.95" gradientUnits="userSpaceOnUse"><stop stop-color="#87CE66"/><stop offset="1" stop-color="#63AB41"/></linearGradient><linearGradient id="paint7_linear" x1="94.572" y1="2279.6" x2="121.059" y2="2306.95" gradientUnits="userSpaceOnUse"><stop stop-color="#87CE66"/><stop offset="1" stop-color="#63AB41"/></linearGradient><linearGradient id="paint8_linear" x1="38.572" y1="2699.6" x2="65.059" y2="2726.95" gradientUnits="userSpaceOnUse"><stop stop-color="#87CE66"/><stop offset="1" stop-color="#63AB41"/></linearGradient><linearGradient id="paint9_linear" x1="54.572" y1="2944.6" x2="81.059" y2="2971.95" gradientUnits="userSpaceOnUse"><stop stop-color="#87CE66"/><stop offset="1" stop-color="#63AB41"/></linearGradient><linearGradient id="paint10_linear" x1="122.572" y1="3290.6" x2="149.059" y2="3317.95" gradientUnits="userSpaceOnUse"><stop stop-color="#87CE66"/><stop offset="1" stop-color="#63AB41"/></linearGradient><linearGradient id="paint11_linear" x1="120.572" y1="3585.6" x2="147.059" y2="3612.95" gradientUnits="userSpaceOnUse"><stop stop-color="#87CE66"/><stop offset="1" stop-color="#63AB41"/></linearGradient><linearGradient id="paint12_linear" x1="62.572" y1="3850.6" x2="89.059" y2="3877.95" gradientUnits="userSpaceOnUse"><stop stop-color="#87CE66"/><stop offset="1" stop-color="#63AB41"/></linearGradient><linearGradient id="paint13_linear" x1="22.572" y1="4055.6" x2="49.059" y2="4082.95" gradientUnits="userSpaceOnUse"><stop stop-color="#87CE66"/><stop offset="1" stop-color="#63AB41"/></linearGradient><linearGradient id="paint14_linear" x1="64.572" y1="4357.6" x2="91.059" y2="4384.95" gradientUnits="userSpaceOnUse"><stop stop-color="#87CE66"/><stop offset="1" stop-color="#63AB41"/></linearGradient><linearGradient id="paint15_linear" x1="73.572" y1="4636.6" x2="100.059" y2="4663.95" gradientUnits="userSpaceOnUse"><stop stop-color="#87CE66"/><stop offset="1" stop-color="#63AB41"/></linearGradient><linearGradient id="paint16_linear" x1="60.572" y1="4890.6" x2="87.059" y2="4917.95" gradientUnits="userSpaceOnUse"><stop stop-color="#87CE66"/><stop offset="1" stop-color="#63AB41"/></linearGradient></defs></svg>