<svg width="22" height="22" fill="none" xmlns="http://www.w3.org/2000/svg"><path d="M11 6.531a4.517 4.517 0 00-4.512 4.512A4.517 4.517 0 0011 15.555a4.517 4.517 0 004.512-4.512A4.517 4.517 0 0011 6.531zm0 0a4.517 4.517 0 00-4.512 4.512A4.517 4.517 0 0011 15.555a4.517 4.517 0 004.512-4.512A4.517 4.517 0 0011 6.531zM18.777 0H3.223A3.224 3.224 0 000 3.223v15.554A3.224 3.224 0 003.223 22h15.554A3.224 3.224 0 0022 18.777V3.223A3.224 3.224 0 0018.777 0zM11 16.844a5.81 5.81 0 01-5.8-5.801 5.81 5.81 0 015.8-5.8 5.81 5.81 0 015.8 5.8 5.81 5.81 0 01-5.8 5.8zm7.09-11.602c-.71 0-1.29-.58-1.29-1.289s.58-1.289 1.29-1.289c.709 0 1.289.58 1.289 1.29 0 .708-.58 1.288-1.29 1.288zM11 6.532a4.517 4.517 0 00-4.512 4.511A4.517 4.517 0 0011 15.555a4.517 4.517 0 004.512-4.512A4.517 4.517 0 0011 6.531zm0 0a4.517 4.517 0 00-4.512 4.511A4.517 4.517 0 0011 15.555a4.517 4.517 0 004.512-4.512A4.517 4.517 0 0011 6.531zm0 0a4.517 4.517 0 00-4.512 4.511A4.517 4.517 0 0011 15.555a4.517 4.517 0 004.512-4.512A4.517 4.517 0 0011 6.531z" fill="#fff"/></svg>