<svg width="43" height="43" fill="none" xmlns="http://www.w3.org/2000/svg"><g clip-path="url(#clip0)"><path d="M35.681 23.342c-.695-.878-.496-1.269 0-2.053.009-.01 5.748-7.94 6.339-10.629l.003-.002c.294-.98 0-1.7-1.42-1.7H35.9c-1.196 0-1.748.618-2.044 1.31 0 0-2.394 5.73-5.78 9.444-1.093 1.073-1.598 1.417-2.195 1.417-.293 0-.75-.344-.75-1.324v-9.146c0-1.176-.335-1.7-1.326-1.7h-7.393c-.75 0-1.196.548-1.196 1.058 0 1.115 1.693 1.37 1.868 4.506v6.803c0 1.49-.27 1.765-.87 1.765-1.599 0-5.478-5.753-7.776-12.338C7.975 9.477 7.52 8.96 6.316 8.96H1.612C.271 8.96 0 9.578 0 10.27c0 1.222 1.598 7.297 7.432 15.324 3.888 5.479 9.363 8.448 14.344 8.448 2.994 0 3.36-.66 3.36-1.794 0-5.235-.271-5.73 1.228-5.73.695 0 1.892.344 4.687 2.987 3.195 3.134 3.72 4.537 5.508 4.537h4.701c1.34 0 2.02-.66 1.629-1.96-.894-2.736-6.936-8.364-7.208-8.74z" fill="url(#paint0_linear)"/></g><defs><linearGradient id="paint0_linear" x1="2.253" y1="11.135" x2="21.232" y2="44.727" gradientUnits="userSpaceOnUse"><stop stop-color="#87CE66"/><stop offset="1" stop-color="#63AB41"/></linearGradient><clipPath id="clip0"><path fill="#fff" d="M0 0h43v43H0z"/></clipPath></defs></svg>